<?xml version="1.0" encoding="utf-8"?>
<!-- Generator: Adobe Illustrator 23.0.6, SVG Export Plug-In . SVG Version: 6.00 Build 0)  -->
<svg version="1.1" xmlns="http://www.w3.org/2000/svg" xmlns:xlink="http://www.w3.org/1999/xlink" x="0px" y="0px"
	 viewBox="0 0 360 360" style="enable-background:new 0 0 360 360;" xml:space="preserve">
<g id="triangles">
	<path d="M214.73,166.51c-1.4,1.09-2.76,1.41-4.4,1.3c-2.09-0.13-6.66-0.31-6.99-0.33c0.08-0.27,2.99-5.76,4.31-8.33
		c0.42-0.81,0.93-1.34,1.77-1.69l37.41-15.96L214.73,166.51z"/>
	<path d="M180.49,258.83l-5.14-41.77c-0.14-1.08,0.11-2.02,0.72-2.97l4.47-7.47l4.63,7.83c0.42,0.66,0.63,1.26,0.52,2.09
		L180.49,258.83z"/>
	<path d="M156.16,167.35c0,0-4.73,0.4-6.97,0.53c-0.75,0.04-1.34-0.21-1.92-0.66c-10.97-8.42-33.37-25.76-33.37-25.76
		s32.33,13.78,35.22,15.01c0.67,0.29,1.15,0.7,1.53,1.34C152.43,160.88,156.16,167.35,156.16,167.35z"/>
</g>
<g id="petals">
	<path d="M263.48,226.09c-2.15-0.11-4.12-0.27-6.09-0.3c-3.38-0.05-6.67,0.58-9.85,1.65c-5.48,1.84-10.59,4.44-15.18,7.99
		c-0.71,0.55-1.44,1.08-2.21,1.54c-2.94,1.79-6.07,1.71-9.27,0.91c-5.53-1.39-10.37-4.14-14.83-7.59
		c-7.52-5.81-13.6-12.94-18.56-21.01c-1.51-2.46-2.62-5.16-3.95-7.73c-0.56-1.09-0.34-2.11-0.01-3.19c0.95-3.08,1.4-6.23,1.32-9.45
		c-0.03-1.34-0.25-2.67-0.41-4.23c0,0,12.69,7.1,12.82,7.18c0.54,0.34,0.96,0.15,1.24-0.13c0.28-0.28,0.66-0.92,0.76-1.3
		c0.13-0.44,0.09-0.99-0.66-1.36c-1.6-0.92-12.15-7.09-12.15-7.09c3.86-1.11,9.07-4.55,11.65-8.09c0.79-0.88,1.64-1.23,2.83-1.34
		c6.12-0.52,12.17,0.13,18.2,1.02c8.91,1.32,17.56,3.74,26.11,6.5c3.34,1.07,6.57,2.41,9.54,4.29c2,1.26,3.82,2.74,5.06,4.81
		c1.1,1.82,1.46,3.68,0.4,5.68c-0.56,1.06-0.98,2.19-1.46,3.29c-1.24,2.88-1.66,5.92-1.9,9.03c-0.19,2.41-0.1,4.77,0.25,7.15
		c0.62,4.14,2.51,7.65,5.32,10.7C262.79,225.34,263.08,225.66,263.48,226.09z"/>
	<path d="M174.55,181.95l-12.04,7.12c-0.93,0.55-0.96,0.73-0.5,1.67c0.73,1.5,1.08,1.65,2.52,0.82l11.8-6.72
		c-0.92,4.74-0.37,8.99,1.16,13.66c0.34,1.17,0.28,2.21-0.18,3.34c-2.27,5.5-5.41,10.48-9.12,15.08c-2.38,2.95-4.88,5.83-7.58,8.48
		c-4.91,4.84-10.45,8.85-16.94,11.36c-2.47,0.95-5,1.68-7.71,1.64c-2.48-0.03-4.57-0.94-6.5-2.37c-2.97-2.21-6.02-4.3-9.38-5.88
		c-3.76-1.78-7.6-3.32-11.73-3.96c-2.91-0.45-5.85-0.67-8.79-0.18c-0.62,0.1-1.25,0.1-1.99,0.15c0.52-0.62,0.94-1.16,1.41-1.68
		c3.5-3.89,5.13-8.5,5.21-13.69c0.05-3.5-0.06-7.01-1.19-10.36c-0.59-1.75-1.24-3.5-2.11-5.12c-1.35-2.51-0.84-4.69,0.72-6.84
		c1.69-2.33,4.02-3.85,6.48-5.22c3.21-1.79,6.68-2.9,10.16-3.99c5.81-1.83,11.68-3.46,17.65-4.64c5.39-1.06,10.81-1.99,16.32-2.11
		c2.29-0.05,4.59,0,6.88,0c0.99,0,1.77,0.31,2.51,1.07c2.9,3.01,6.22,5.47,10.07,7.17C172.52,181.14,173.39,181.47,174.55,181.95z"
		/>
	<path d="M180.51,88.6c0.47,1.25,0.84,2.39,1.33,3.48c1.69,3.8,4.33,6.8,7.8,9.08c5.22,3.43,10.86,5.71,17.16,6.07
		c2.84,0.16,4.59,1.63,5.67,4.15c1.41,3.28,1.53,6.71,1.17,10.16c-0.64,5.98-2.21,11.77-3.81,17.55c-2.05,7.39-4.55,14.6-8.17,21.38
		c-1.31,2.46-2.92,4.77-4.39,7.15c-0.34,0.55-0.81,0.78-1.46,0.89c-4.03,0.71-7.81,2.07-11.19,4.43c-0.73,0.51-1.42,1.07-2.33,1.76
		l-0.11-14.1c-0.04-1.52-0.26-1.74-1.75-1.7c-1.28,0.03-1.45,0.37-1.46,1.7c-0.02,4.25-0.01,14.1-0.01,14.1
		c-4.42-4.11-9.01-5.39-13.82-6.17c-1.71-0.28-2.85-1.03-3.88-2.4c-4.22-5.6-7.34-11.77-9.83-18.29c-1.85-4.83-3.17-9.79-3.84-14.91
		c-0.7-5.29-0.58-10.55,1.07-15.7c1.06-3.28,3.06-5.62,6.4-6.83c4.66-1.69,9.06-3.92,13.14-6.78
		C173.57,99.85,180.31,88.85,180.51,88.6z"/>
</g>
<g id="ven">
	<path d="M147.84,151.66L99.71,131l-1.26,2.74l44.18,34.88c-1.41,0.28-2.54,0.53-3.67,0.72c-6.65,1.13-13.18,2.78-19.61,4.82
		c-3.42,1.09-6.84,2.22-10.19,3.5c-3.54,1.34-6.7,3.38-9.44,5.98c-2.17,2.06-3.74,4.54-4.29,7.56c-0.26,1.43-0.04,2.79,0.49,4.11
		c0.6,1.48,1.29,2.93,1.87,4.41c1.87,4.73,2.18,9.63,1.27,14.58c-0.66,3.6-2.58,6.59-5.35,8.98c-1.44,1.23-3.01,2.3-4.53,3.45
		c-0.52,0.39-1.06,0.75-1.56,1.16c-1.23,0.99-1.63,2.11-1.19,3.26c0.37,0.99,1.92,1.82,3.27,1.62c1.08-0.16,2.15-0.45,3.2-0.76
		c3.43-1,6.92-1.48,10.49-1.5c4.65-0.03,8.96,1.23,13.16,3.09c3.83,1.69,7.26,3.99,10.62,6.43c3.8,2.75,7.98,3.72,12.62,2.69
		c5.25-1.16,10-3.42,14.47-6.33c1.88-1.22,1.94-1.65,3.4,0.64c3.26,5.1,6.92,9.92,11.13,14.29c2.11,2.19,4.3,4.31,6.45,6.47
		c0.32,0.32,0.63,0.64,0.95,0.96c0.44,0.45,0.4,0.9-0.07,1.29c-0.66,0.54-1.31,1.09-2,1.58c-4.86,3.45-9.94,6.53-15.31,9.11
		c-8.15,3.92-16.66,6.71-25.59,8.18c-3.49,0.57-7,1.08-10.52,1.41c-2.88,0.27-5.79,0.42-8.67,0.31c-10.72-0.39-21.24-1.99-31.4-5.58
		c-3.76-1.33-7.42-2.9-11.03-4.65c-5.97-2.89-11.58-6.31-16.85-10.3c-4.47-3.38-8.63-7.11-12.45-11.23
		c-3.31-3.56-6.37-7.31-9.15-11.29c-4.92-7.04-8.84-14.61-11.8-22.68c-2.26-6.16-3.93-12.48-4.9-18.97
		c-0.56-3.75-1.05-7.51-1.08-11.32c-0.01-1.14-0.24-2.29-0.22-3.43c0.1-6.7,0.67-13.35,1.91-19.94
		c1.93-10.25,5.45-19.94,10.44-29.07c3.97-7.27,8.82-13.9,14.44-20.01c7.14-7.76,15.35-14.14,24.5-19.31
		c6.33-3.58,12.99-6.38,19.95-8.5c6.24-1.9,12.61-3.08,19.07-3.74c6.02-0.62,12.07-0.64,18.11-0.14
		c11.76,0.98,23.05,3.73,33.72,8.81c3.69,1.76,7.23,3.83,10.84,5.76c0.26,0.14,0.51,0.31,0.75,0.49c0.86,0.64,0.89,0.89,0.07,1.6
		c-3.53,3.07-7.44,5.57-11.75,7.41c-1.61,0.69-3.23,1.35-4.83,2.04c-4.28,1.86-6.84,5.23-8.29,9.54c-1.11,3.29-1.65,6.72-1.62,10.16
		c0.05,4.84,0.48,9.68,1.86,14.36c0.95,3.21,2,6.38,3.01,9.57C147.46,150.58,147.59,150.94,147.84,151.66z"/>
	<path d="M218.78,168.49c0.42-0.36,0.82-0.72,1.24-1.04c10.99-8.42,21.97-16.84,32.96-25.26c3.05-2.34,10-7.89,10-7.89l-1.74-3.23
		c0,0-50.04,21.29-50.71,21.55l0.45-1.3c2.98-8.03,5.1-16.29,6.77-24.68c0.64-3.2,0.96-6.43,0.77-9.68
		c-0.19-3.12-0.75-6.16-2.41-8.88c-1.8-2.94-4.13-5.12-7.79-5.41c-1.19-0.09-2.37-0.32-3.56-0.45c-3.59-0.39-6.86-1.73-9.98-3.46
		c-1-0.56-1.97-1.18-2.94-1.79c-0.52-0.33-0.51-0.71,0.01-1.04c0.76-0.49,1.52-0.97,2.29-1.43c8.23-4.94,16.96-8.68,26.27-11.07
		c4.41-1.13,8.87-1.98,13.38-2.52c2.08-0.25,4.18-0.35,6.27-0.46c2.09-0.11,4.19-0.24,6.29-0.21c10.95,0.16,21.68,1.71,32.06,5.36
		c12.59,4.43,23.92,11.01,33.9,19.91c8.47,7.56,15.49,16.27,21.01,26.18c5.57,10,9.29,20.67,11.19,31.95
		c0.54,3.19,0.82,6.44,0.99,9.67c0.21,3.99,0.39,7.99,0.22,11.97c-0.24,5.58-0.9,11.14-2.16,16.61c-1.1,4.73-2.39,9.39-4.14,13.92
		c-3.33,8.62-7.67,16.7-13.21,24.12c-7.09,9.51-15.56,17.56-25.48,24.07c-10.99,7.21-22.92,12.12-35.84,14.6
		c-3.97,0.76-7.96,1.34-12.01,1.47c-3.64,0.12-7.28,0.27-10.92,0.24c-2.23-0.02-4.47-0.28-6.7-0.54c-3.07-0.36-6.15-0.67-9.17-1.28
		c-6.72-1.36-13.26-3.33-19.57-6.05c-7.24-3.12-14.02-7.03-20.36-11.69c-0.24-0.18-0.48-0.36-0.71-0.55
		c-0.96-0.76-0.94-0.85-0.08-1.69c2.46-2.41,4.98-4.78,7.34-7.29c4.08-4.34,7.69-9.06,10.92-14.07c1.46-2.27,1.01-1.96,3.08-0.65
		c4.33,2.74,8.85,5.04,13.89,6.17c3.55,0.8,7.08,0.77,10.4-0.84c1.65-0.8,3.17-1.89,4.66-2.97c3.86-2.82,8.02-5.04,12.54-6.64
		c5.38-1.9,10.84-2.19,16.38-0.96c2,0.44,3.96,1.02,5.95,1.48c0.62,0.15,1.28,0.21,1.92,0.19c1.09-0.04,1.93-0.59,2.34-1.6
		c0.41-0.99,0.31-2.03-0.48-2.79c-0.82-0.79-1.75-1.48-2.69-2.13c-2.31-1.59-4.54-3.25-6.35-5.44c-1.94-2.35-3.16-5.03-3.43-8.01
		c-0.4-4.35-0.25-8.7,1.35-12.86c0.34-0.88,0.72-1.76,1.17-2.59c2.48-4.49,1.52-8.56-1.49-12.37c-2.12-2.68-4.88-4.56-7.86-6.13
		c-3.01-1.6-6.18-2.82-9.44-3.8c-3.82-1.15-7.62-2.41-11.5-3.34C229.11,170.69,218.97,168.63,218.78,168.49z"/>
	<path d="M175.66,251.94c-0.76-0.77-1.56-1.52-2.31-2.31c-4.62-4.87-8.74-10.12-12.34-15.79c-1.01-1.59-1.05-1.64,0.36-2.87
		c3.69-3.22,6.96-6.52,10.26-10.55L175.66,251.94z"/>
	<path d="M185.49,251.95l3.87-31.52c1.56,1.74,2.86,3.28,4.27,4.73c1.98,2.04,6.41,6.35,6.61,6.5c0.62,0.44,0.64,0.9,0.22,1.52
		c-0.79,1.15-1.48,2.37-2.28,3.51c-2.92,4.17-6.03,8.2-9.57,11.89C187.56,249.69,186.54,250.83,185.49,251.95z"/>
</g>
</svg>
