<?xml version="1.0" encoding="utf-8"?>
<!-- Generator: Adobe Illustrator 23.0.6, SVG Export Plug-In . SVG Version: 6.00 Build 0)  -->
<svg version="1.1" id="Layer_1" xmlns="http://www.w3.org/2000/svg" xmlns:xlink="http://www.w3.org/1999/xlink" x="0px" y="0px"
	 viewBox="0 0 60 60" style="enable-background:new 0 0 60 60;" xml:space="preserve">
<style type="text/css">
	.st0{stroke:#000000;stroke-width:0.11;stroke-miterlimit:10;}
	.st1{fill:none;}
</style>
<g>
	<path class="st0" d="M57.57,23.09c-0.89-2.11-2.17-4.01-3.8-5.64c-1.63-1.63-3.53-2.91-5.64-3.8c-2.19-0.93-4.51-1.39-6.91-1.39
		c-1.84,0-3.66,0.29-5.39,0.85c-1.63,0.53-3.2,1.31-4.65,2.32c-0.1-0.11-0.18-0.21-0.26-0.33c-0.51-0.75-0.58-1.59-0.62-2.09
		c-0.03-0.35-0.04-0.54-0.2-0.54c-0.15,0-0.19,0.18-0.29,0.55c-0.13,0.53-0.36,1.41-1.03,2.26c-0.01,0.02-0.03,0.04-0.04,0.06
		c-1.43-0.96-2.99-1.72-4.64-2.24c-1.74-0.55-3.54-0.84-5.34-0.84c-2.4,0-4.72,0.47-6.91,1.39c-2.11,0.89-4.01,2.17-5.64,3.8
		c-1.63,1.63-2.91,3.53-3.8,5.64C1.5,25.28,1.03,27.6,1.03,30c0,2.4,0.47,4.72,1.39,6.91c0.89,2.11,2.17,4.01,3.8,5.64
		c1.63,1.63,3.53,2.91,5.64,3.8c2.19,0.93,4.51,1.39,6.91,1.39c2.02,0,4-0.34,5.88-1c1.78-0.63,3.45-1.53,4.95-2.69l0.3,2.43l0.08,0
		l0.08,0l0.3-2.46c1.5,1.17,3.17,2.08,4.96,2.71c1.89,0.67,3.88,1.01,5.9,1.01c2.4,0,4.72-0.47,6.91-1.39
		c2.11-0.89,4.01-2.17,5.64-3.8c1.63-1.63,2.91-3.53,3.8-5.64c0.93-2.19,1.39-4.51,1.39-6.91C58.97,27.6,58.5,25.28,57.57,23.09z
		 M41.23,47.57c-2.01,0-3.97-0.34-5.85-1c-1.8-0.64-3.48-1.56-4.99-2.74l0.06-0.47c1.47-1.28,2.65-2.71,3.63-4.38
		c0.13,0.1,0.26,0.2,0.38,0.28c0.3,0.21,1.85,1.24,3.18,1.24c0.22,0,0.42-0.03,0.6-0.08c0.41-0.12,0.67-0.31,1.01-0.56
		c0.4-0.29,0.89-0.66,1.84-1.05c0.43-0.18,0.95-0.37,1.64-0.45c1.1-0.12,2.01,0.14,2.55,0.29c0.37,0.11,0.56,0.16,0.64,0.04
		c0.08-0.14-0.08-0.25-0.38-0.45c-0.43-0.29-1.15-0.77-1.57-1.57c-0.39-0.76-0.35-1.5-0.33-2.03c0.04-0.88,0.28-1.38,0.48-1.79
		c0.14-0.29,0.25-0.52,0.24-0.79c0-0.03-0.03-0.21-0.09-0.38c-0.3-0.92-1.36-1.67-3.16-2.24c-0.92-0.29-3.07-0.97-5.31-1.21
		l8.27-6.34l0.02-0.01l-0.05-0.06L44,21.74l-9.44,4.05c0.81-1.87,1.25-3.82,1.43-4.66c0.4-1.78,0.26-3.04-0.41-3.75
		c-0.12-0.13-0.26-0.24-0.29-0.26c-0.24-0.14-0.5-0.17-0.83-0.2c-0.46-0.05-1.04-0.1-1.85-0.51c-0.36-0.18-0.86-0.43-1.29-0.85
		c1.43-0.99,2.97-1.76,4.58-2.29c1.71-0.56,3.51-0.84,5.33-0.84c2.37,0,4.67,0.46,6.84,1.38c2.09,0.89,3.97,2.15,5.59,3.77
		c1.61,1.61,2.88,3.49,3.77,5.59c0.92,2.17,1.38,4.47,1.38,6.84s-0.46,4.67-1.38,6.84c-0.89,2.09-2.15,3.97-3.77,5.59
		c-1.61,1.61-3.49,2.88-5.59,3.77C45.9,47.11,43.6,47.57,41.23,47.57z M29.98,33.66c0.28,0.73,0.69,1.48,1.21,2.24l-1.21,9.87
		l-1.21-9.87C29.3,35.14,29.7,34.39,29.98,33.66z M18.77,47.57c-2.37,0-4.67-0.46-6.84-1.38c-2.09-0.89-3.97-2.15-5.59-3.77
		c-1.61-1.61-2.88-3.49-3.77-5.59C1.66,34.67,1.2,32.37,1.2,30c0-2.37,0.46-4.67,1.38-6.84c0.89-2.09,2.15-3.97,3.77-5.59
		c1.61-1.61,3.49-2.88,5.59-3.77c2.17-0.92,4.47-1.38,6.84-1.38c1.78,0,3.56,0.28,5.29,0.83c1.62,0.52,3.16,1.26,4.58,2.21
		c-0.37,0.43-0.75,0.71-1.08,0.94c-0.83,0.59-1.41,0.81-1.88,0.99c-0.39,0.15-0.7,0.27-1.02,0.55c-1.09,0.97-0.92,3.27-0.87,3.72
		c0.12,1.18,0.53,2.6,1.13,3.9l-8.94-3.83l-0.02-0.01l-0.03,0.07l-0.05,0.06l8.29,6.35c-2.24,0.24-4.39,0.92-5.31,1.21
		C17.07,30,16,30.76,15.7,31.67c-0.05,0.17-0.09,0.34-0.09,0.38c-0.01,0.27,0.1,0.5,0.24,0.79c0.19,0.41,0.43,0.91,0.48,1.79
		c0.03,0.54,0.06,1.28-0.33,2.03c-0.42,0.8-1.14,1.28-1.57,1.57c-0.3,0.2-0.46,0.31-0.38,0.44c0.07,0.12,0.26,0.07,0.64-0.04
		c0.54-0.16,1.45-0.42,2.55-0.29c0.69,0.08,1.21,0.27,1.64,0.45c0.95,0.39,1.44,0.76,1.84,1.05c0.34,0.25,0.6,0.44,1.01,0.56
		c0.18,0.05,0.38,0.08,0.6,0.08c1.33,0,2.88-1.03,3.18-1.24c0.13-0.09,0.26-0.19,0.4-0.3c0.93,1.58,2.17,3.1,3.6,4.37l0.06,0.52
		c-1.51,1.18-3.18,2.09-4.98,2.73C22.73,47.24,20.77,47.57,18.77,47.57z M28.93,15.38c0.69-0.87,0.92-1.78,1.06-2.32
		c0.03-0.14,0.07-0.27,0.11-0.35c0.02,0.07,0.04,0.18,0.05,0.31c0.04,0.52,0.11,1.38,0.65,2.17c0.51,0.74,1.21,1.1,1.73,1.36
		c0.84,0.42,1.46,0.48,1.91,0.53c0.31,0.03,0.55,0.05,0.76,0.18c0.02,0.01,0.15,0.11,0.26,0.23c0.63,0.67,0.76,1.88,0.37,3.6
		c-0.19,0.86-0.64,2.88-1.49,4.79l-0.01,0.01l-0.01,0.01c-0.42,0.93-0.87,1.71-1.36,2.32c-1.23,0.18-2.14,0.64-2.72,1.36
		c-0.06,0.07-0.11,0.15-0.16,0.22v-3.48H29.9v3.48c-0.05-0.08-0.11-0.15-0.16-0.22c-0.62-0.76-1.61-1.23-2.94-1.39
		c-1.68-1.9-2.65-4.72-2.83-6.54c-0.04-0.44-0.21-2.67,0.82-3.58c0.29-0.26,0.59-0.37,0.97-0.52c0.47-0.18,1.06-0.41,1.91-1.01
		C28.04,16.27,28.49,15.93,28.93,15.38L28.93,15.38z M31.83,36.75c0.65,0.81,1.38,1.55,2.12,2.13c-0.94,1.6-2.07,2.99-3.46,4.23
		l0.86-7.01C31.49,36.32,31.66,36.54,31.83,36.75z M29.98,30.31c0.35,0.78,0.35,1.74,0,2.84C29.64,32.04,29.64,31.09,29.98,30.31z
		 M24.42,28.2l-7.88-6.04l8.5,3.64c0.44,0.91,0.95,1.7,1.51,2.37C25.91,28.12,25.2,28.13,24.42,28.2z M26.97,28.39
		c1.19,0.17,2.08,0.61,2.64,1.3c0.06,0.07,0.11,0.14,0.16,0.22C28.82,29.85,27.85,29.32,26.97,28.39z M35.55,28.2
		c-0.44-0.04-0.85-0.06-1.25-0.06c-0.39,0-0.76,0.02-1.11,0.06c0.45-0.59,0.88-1.33,1.26-2.19l8.97-3.85L35.55,28.2L35.55,28.2z
		 M30.2,29.91c0.05-0.08,0.1-0.15,0.16-0.22c0.52-0.65,1.34-1.07,2.43-1.27c-0.75,0.86-1.57,1.36-2.45,1.47
		C30.3,29.9,30.25,29.9,30.2,29.91z M45.32,38.5L45.32,38.5L45.32,38.5L45.32,38.5z M30.11,30.18l2.98,1.74l0.08-0.14l-2.92-1.71
		c0.04,0,0.07-0.01,0.11-0.01c0.97-0.12,1.88-0.69,2.68-1.67c2.9-0.4,6.74,0.81,8.01,1.21c1.75,0.55,2.77,1.27,3.05,2.13
		c0.05,0.15,0.08,0.31,0.08,0.33c0.01,0.23-0.09,0.44-0.22,0.71c-0.19,0.4-0.45,0.94-0.49,1.85c-0.03,0.56-0.07,1.32,0.35,2.12
		c0.44,0.84,1.18,1.34,1.62,1.63c0.1,0.07,0.23,0.15,0.29,0.21c-0.09-0.01-0.26-0.06-0.4-0.1l0,0c-0.56-0.16-1.49-0.42-2.62-0.3
		c-0.71,0.08-1.24,0.28-1.68,0.46c-0.97,0.4-1.47,0.77-1.88,1.07c-0.32,0.24-0.58,0.43-0.96,0.54c-1.34,0.39-3.27-0.88-3.64-1.13
		c-1.61-1.12-3.67-3.44-4.48-5.71C30.51,32.15,30.52,31.06,30.11,30.18z M25.42,39.13L25.42,39.13c-0.32,0.22-1.81,1.21-3.08,1.21
		c-0.19,0-0.38-0.02-0.56-0.07c-0.38-0.11-0.63-0.3-0.96-0.54c-0.41-0.3-0.91-0.67-1.88-1.07c-0.44-0.18-0.97-0.38-1.68-0.46
		c-0.2-0.02-0.4-0.03-0.6-0.03c-0.86,0-1.55,0.2-2.01,0.33c-0.14,0.04-0.31,0.09-0.4,0.1c0.06-0.05,0.19-0.14,0.29-0.21
		c0.44-0.3,1.19-0.79,1.62-1.63c0.41-0.8,0.37-1.56,0.35-2.12c-0.05-0.91-0.3-1.46-0.49-1.85c-0.13-0.27-0.23-0.48-0.22-0.71
		c0-0.02,0.03-0.18,0.08-0.33c0.28-0.86,1.31-1.58,3.05-2.13c1.22-0.38,4.92-1.55,7.79-1.24c0.94,1.04,1.97,1.63,3,1.72l-2.91,1.7
		l0.08,0.14l2.98-1.74c-0.42,0.88-0.4,1.97,0.04,3.24C29.09,35.69,27.03,38.01,25.42,39.13z M26.05,38.86
		c0.72-0.58,1.45-1.31,2.09-2.11c0.17-0.21,0.33-0.43,0.49-0.65l0.85,6.98C28.12,41.84,26.93,40.39,26.05,38.86z"/>
	<path class="st0" d="M41.23,47.77c-2.03,0-4.02-0.34-5.91-1.01c-1.77-0.62-3.43-1.53-4.92-2.68l-0.3,2.43l-0.11,0l-0.11,0
		l-0.29-2.41c-1.49,1.15-3.15,2.04-4.91,2.66c-1.89,0.66-3.87,1-5.89,1c-2.4,0-4.73-0.47-6.92-1.4c-2.12-0.9-4.02-2.18-5.65-3.81
		c-1.63-1.63-2.91-3.53-3.81-5.65C1.47,34.73,1,32.4,1,30c0-2.4,0.47-4.73,1.4-6.92c0.9-2.12,2.18-4.02,3.81-5.65
		c1.63-1.63,3.53-2.91,5.65-3.81c2.19-0.93,4.52-1.4,6.92-1.4c1.8,0,3.6,0.28,5.35,0.84c1.64,0.52,3.19,1.27,4.62,2.23
		c0.01-0.01,0.02-0.02,0.03-0.03c0.66-0.84,0.89-1.72,1.02-2.25c0.1-0.38,0.15-0.57,0.32-0.57c0.19,0,0.2,0.22,0.23,0.57
		c0.04,0.5,0.11,1.33,0.62,2.07c0.07,0.11,0.15,0.21,0.24,0.31c1.45-1,3.01-1.78,4.63-2.31c1.73-0.57,3.55-0.85,5.4-0.85
		c2.4,0,4.73,0.47,6.92,1.4c2.12,0.9,4.02,2.18,5.65,3.81c1.63,1.63,2.91,3.53,3.81,5.65C58.53,25.27,59,27.6,59,30
		c0,2.4-0.47,4.73-1.4,6.92c-0.9,2.12-2.18,4.02-3.81,5.65c-1.63,1.63-3.53,2.91-5.65,3.81C45.95,47.3,43.63,47.77,41.23,47.77z
		 M30.34,43.97L30.38,44c1.5,1.16,3.17,2.07,4.95,2.7c1.89,0.67,3.87,1,5.89,1c2.39,0,4.71-0.47,6.89-1.39
		c2.11-0.89,4-2.17,5.63-3.8c1.63-1.63,2.9-3.52,3.8-5.63c0.92-2.18,1.39-4.5,1.39-6.89c0-2.39-0.47-4.71-1.39-6.89
		c-0.89-2.11-2.17-4-3.8-5.63c-1.63-1.63-3.52-2.9-5.63-3.8c-2.18-0.92-4.5-1.39-6.89-1.39c-1.84,0-3.65,0.29-5.38,0.85
		c-1.63,0.53-3.19,1.31-4.64,2.32l-0.02,0.02l-0.02-0.02c-0.1-0.11-0.19-0.22-0.26-0.33c-0.52-0.76-0.59-1.6-0.63-2.11
		c-0.03-0.35-0.05-0.51-0.17-0.51c-0.12,0-0.16,0.15-0.26,0.52c-0.14,0.53-0.36,1.42-1.03,2.27c-0.02,0.02-0.03,0.04-0.05,0.06
		l-0.02,0.02l-0.02-0.02c-1.43-0.96-2.98-1.71-4.63-2.24c-1.74-0.55-3.53-0.83-5.33-0.83c-2.39,0-4.71,0.47-6.89,1.39
		c-2.11,0.89-4,2.17-5.63,3.8c-1.63,1.63-2.9,3.52-3.8,5.63c-0.92,2.18-1.39,4.5-1.39,6.89c0,2.39,0.47,4.71,1.39,6.89
		c0.89,2.11,2.17,4,3.8,5.63c1.63,1.63,3.52,2.9,5.63,3.8c2.18,0.92,4.5,1.39,6.89,1.39c2.01,0,3.99-0.34,5.87-1
		c1.78-0.62,3.44-1.53,4.94-2.69l0.04-0.03l0.3,2.46l0.05-0.01l0.05,0.01L30.34,43.97z M41.23,47.61c-2.01,0-3.98-0.34-5.86-1
		c-1.81-0.64-3.49-1.56-5-2.75l-0.01-0.01l0.06-0.5l0.01-0.01c1.46-1.27,2.65-2.7,3.62-4.37l0.02-0.03l0.03,0.02
		c0.13,0.1,0.26,0.19,0.38,0.28c0.3,0.21,1.84,1.23,3.16,1.23c0.21,0,0.41-0.03,0.59-0.08c0.4-0.12,0.66-0.31,1-0.56
		c0.4-0.29,0.9-0.66,1.85-1.06c0.43-0.18,0.95-0.38,1.65-0.45c1.1-0.13,2.02,0.14,2.57,0.29c0.36,0.1,0.54,0.15,0.6,0.05
		c0.06-0.1-0.07-0.2-0.37-0.4c-0.43-0.29-1.16-0.77-1.58-1.58c-0.4-0.77-0.36-1.51-0.33-2.05c0.04-0.89,0.29-1.39,0.48-1.8
		c0.14-0.29,0.24-0.51,0.24-0.78c0-0.03-0.03-0.2-0.09-0.37c-0.29-0.91-1.35-1.65-3.14-2.22c-0.92-0.29-3.07-0.97-5.3-1.21
		l-0.08-0.01l8.32-6.38L44,21.82l-0.02-0.05l-9.48,4.07l0.03-0.07c0.81-1.87,1.25-3.82,1.43-4.65c0.4-1.77,0.26-3.02-0.41-3.73
		c-0.12-0.13-0.26-0.24-0.29-0.26c-0.23-0.14-0.49-0.16-0.82-0.2c-0.47-0.05-1.05-0.1-1.87-0.51c-0.37-0.18-0.87-0.43-1.29-0.85
		l-0.03-0.03l0.03-0.02c1.43-0.99,2.98-1.76,4.59-2.29c1.72-0.56,3.51-0.84,5.34-0.84c2.38,0,4.68,0.47,6.85,1.38
		c2.1,0.89,3.98,2.16,5.6,3.77c1.62,1.62,2.89,3.5,3.77,5.6c0.92,2.17,1.38,4.48,1.38,6.85c0,2.38-0.47,4.68-1.38,6.85
		c-0.89,2.1-2.16,3.98-3.77,5.6c-1.62,1.62-3.5,2.89-5.6,3.77C45.91,47.14,43.6,47.61,41.23,47.61z M30.42,43.82
		c1.5,1.18,3.18,2.09,4.97,2.73c1.87,0.66,3.83,0.99,5.84,0.99c2.37,0,4.67-0.46,6.83-1.38c2.09-0.88,3.97-2.15,5.58-3.76
		c1.61-1.61,2.88-3.49,3.76-5.58c0.91-2.16,1.38-4.46,1.38-6.83s-0.46-4.67-1.38-6.83c-0.88-2.09-2.15-3.97-3.76-5.58
		c-1.61-1.61-3.49-2.88-5.58-3.76c-2.16-0.91-4.46-1.38-6.83-1.38c-1.82,0-3.61,0.28-5.32,0.84c-1.59,0.52-3.12,1.28-4.54,2.26
		c0.42,0.4,0.9,0.64,1.25,0.82c0.81,0.41,1.38,0.46,1.84,0.51c0.33,0.03,0.6,0.06,0.84,0.21c0.03,0.02,0.17,0.13,0.3,0.27
		c0.68,0.72,0.82,1.99,0.42,3.78c-0.18,0.82-0.61,2.73-1.4,4.59l9.4-4.03l0.05,0.09l0.06,0.1l-0.04,0.03l-8.21,6.29
		c2.21,0.25,4.33,0.92,5.24,1.21c1.81,0.57,2.88,1.33,3.18,2.26c0.06,0.17,0.09,0.35,0.09,0.39c0.01,0.28-0.1,0.51-0.24,0.81
		c-0.19,0.4-0.43,0.91-0.47,1.78c-0.03,0.54-0.06,1.27,0.32,2.02c0.41,0.8,1.13,1.27,1.56,1.56c0.31,0.2,0.49,0.33,0.39,0.49
		c-0.09,0.14-0.28,0.09-0.67-0.02c-0.54-0.16-1.45-0.41-2.54-0.29c-0.69,0.08-1.2,0.27-1.63,0.45c-0.95,0.39-1.44,0.76-1.84,1.05
		c-0.34,0.25-0.61,0.45-1.02,0.57c-0.19,0.05-0.39,0.08-0.61,0.08c-1.34,0-2.9-1.03-3.2-1.24c-0.11-0.08-0.23-0.16-0.35-0.26
		c-0.97,1.65-2.15,3.08-3.61,4.34L30.42,43.82z M18.77,47.61c-2.38,0-4.68-0.47-6.85-1.38c-2.1-0.89-3.98-2.16-5.6-3.77
		c-1.62-1.62-2.89-3.5-3.77-5.6C1.63,34.68,1.17,32.38,1.17,30s0.47-4.68,1.38-6.85c0.89-2.1,2.16-3.98,3.77-5.6
		c1.62-1.62,3.5-2.89,5.6-3.77c2.17-0.92,4.48-1.38,6.85-1.38c1.79,0,3.57,0.28,5.3,0.83c1.63,0.52,3.17,1.26,4.59,2.21l0.03,0.02
		l-0.02,0.03c-0.38,0.43-0.76,0.72-1.08,0.95c-0.84,0.59-1.42,0.82-1.88,1c-0.39,0.15-0.7,0.27-1.01,0.55
		c-1.08,0.96-0.91,3.25-0.86,3.7c0.12,1.18,0.53,2.6,1.13,3.89l0.03,0.07l-9-3.86l-0.02,0.05l-0.03,0.04l8.32,6.38l-0.08,0.01
		c-2.24,0.24-4.39,0.92-5.3,1.21c-1.79,0.57-2.85,1.31-3.14,2.22c-0.05,0.17-0.08,0.34-0.09,0.37c-0.01,0.26,0.1,0.49,0.24,0.78
		c0.19,0.41,0.43,0.92,0.48,1.8c0.03,0.54,0.06,1.29-0.33,2.05c-0.42,0.81-1.14,1.29-1.58,1.58c-0.3,0.2-0.44,0.3-0.37,0.4
		c0.06,0.1,0.24,0.05,0.6-0.05c0.55-0.16,1.46-0.42,2.57-0.29c0.7,0.08,1.21,0.28,1.65,0.45c0.95,0.39,1.45,0.76,1.85,1.06
		c0.33,0.25,0.6,0.44,1,0.56c0.18,0.05,0.38,0.08,0.59,0.08c1.32,0,2.87-1.03,3.16-1.23c0.13-0.09,0.26-0.19,0.4-0.3l0.03-0.02
		l0.02,0.03c0.93,1.58,2.17,3.09,3.6,4.36l0.01,0.01l0.07,0.55l-0.01,0.01c-1.51,1.18-3.19,2.1-4.99,2.73
		C22.74,47.27,20.78,47.61,18.77,47.61z M18.77,12.46c-2.37,0-4.67,0.46-6.83,1.38c-2.09,0.88-3.97,2.15-5.58,3.76
		c-1.61,1.61-2.88,3.49-3.76,5.58C1.69,25.33,1.23,27.63,1.23,30c0,2.37,0.46,4.67,1.38,6.83c0.88,2.09,2.15,3.97,3.76,5.58
		c1.61,1.61,3.49,2.88,5.58,3.76c2.16,0.91,4.46,1.38,6.83,1.38c2,0,3.95-0.33,5.82-0.99c1.79-0.63,3.46-1.54,4.96-2.71l-0.06-0.49
		c-1.42-1.27-2.66-2.77-3.58-4.34c-0.13,0.1-0.26,0.19-0.38,0.28c-0.3,0.21-1.86,1.24-3.2,1.24c-0.22,0-0.42-0.03-0.61-0.08
		c-0.41-0.12-0.68-0.32-1.02-0.57c-0.4-0.29-0.89-0.66-1.84-1.05c-0.43-0.18-0.94-0.37-1.63-0.45c-1.09-0.12-2,0.14-2.54,0.29
		c-0.39,0.11-0.59,0.17-0.67,0.02c-0.1-0.16,0.09-0.28,0.39-0.49c0.43-0.29,1.14-0.76,1.56-1.56c0.39-0.75,0.35-1.48,0.32-2.02
		c-0.04-0.87-0.28-1.38-0.47-1.78c-0.14-0.29-0.25-0.53-0.24-0.81c0-0.04,0.03-0.21,0.09-0.39c0.3-0.93,1.37-1.69,3.18-2.26
		c0.91-0.29,3.02-0.95,5.24-1.2l-8.25-6.32l0.05-0.09l0.05-0.09L16,21.71l8.86,3.8c-0.58-1.28-0.98-2.68-1.1-3.84
		c-0.05-0.45-0.22-2.77,0.88-3.75c0.32-0.28,0.63-0.4,1.03-0.56c0.46-0.18,1.04-0.41,1.87-0.99c0.32-0.22,0.69-0.5,1.05-0.91
		c-1.4-0.94-2.93-1.67-4.54-2.19C22.33,12.73,20.55,12.46,18.77,12.46z M29.96,45.63l-1.22-9.74l0.01-0.01
		c0.52-0.76,0.93-1.51,1.2-2.23l0.03-0.08l0.03,0.08c0.28,0.73,0.68,1.48,1.2,2.23l0.01,0.01l0,0.01L29.96,45.63z M28.81,35.91
		l1.17,9.6l1.17-9.6c-0.5-0.73-0.9-1.46-1.17-2.16C29.71,34.45,29.31,35.18,28.81,35.91z M30.44,43.19l0.88-7.17l0.05,0.07
		c0.16,0.22,0.32,0.44,0.49,0.65c0.65,0.81,1.38,1.55,2.11,2.13l0.02,0.02l-0.01,0.02c-0.94,1.61-2.07,2.99-3.47,4.24L30.44,43.19z
		 M31.36,36.19l-0.84,6.85c1.36-1.22,2.46-2.57,3.38-4.14c-0.73-0.58-1.45-1.31-2.1-2.12C31.65,36.58,31.5,36.39,31.36,36.19z
		 M29.53,43.17l-0.06-0.06c-1.37-1.24-2.56-2.71-3.44-4.23l-0.01-0.02l0.02-0.02c0.72-0.58,1.45-1.31,2.09-2.11
		c0.17-0.21,0.33-0.43,0.49-0.65l0.05-0.07L29.53,43.17z M26.09,38.87c0.87,1.49,2.03,2.91,3.36,4.13l-0.83-6.82
		c-0.14,0.2-0.29,0.39-0.44,0.58C27.53,37.57,26.81,38.29,26.09,38.87z M22.34,40.37C22.34,40.37,22.34,40.37,22.34,40.37
		c-0.2,0-0.4-0.03-0.57-0.08c-0.38-0.11-0.64-0.3-0.97-0.54c-0.4-0.3-0.91-0.67-1.87-1.07c-0.44-0.18-0.96-0.38-1.67-0.46
		c-0.2-0.02-0.4-0.03-0.6-0.03c-0.85,0-1.55,0.2-2.01,0.33c-0.15,0.04-0.32,0.09-0.41,0.1l-0.1,0.01l0.08-0.07
		c0.06-0.06,0.19-0.14,0.3-0.21c0.44-0.29,1.18-0.79,1.61-1.62c0.41-0.79,0.37-1.55,0.34-2.1c-0.05-0.91-0.3-1.45-0.49-1.84
		c-0.13-0.27-0.23-0.49-0.23-0.73c0-0.03,0.03-0.18,0.08-0.34c0.28-0.87,1.32-1.59,3.08-2.15c1.22-0.38,4.93-1.56,7.8-1.24l0.01,0
		l0.01,0.01c0.93,1.03,1.96,1.62,2.98,1.71l0.1,0.01l-2.97,1.74l0.05,0.09l3.04-1.78l-0.04,0.09c-0.41,0.87-0.4,1.95,0.04,3.21
		l0,0.01l0,0.01c-0.81,2.28-2.87,4.6-4.49,5.73l0,0C25.14,39.36,23.62,40.37,22.34,40.37z M16.66,38.12c0.2,0,0.41,0.01,0.61,0.03
		c0.72,0.08,1.25,0.28,1.69,0.47c0.97,0.4,1.48,0.78,1.88,1.08c0.32,0.24,0.57,0.42,0.95,0.53c0.17,0.05,0.35,0.07,0.55,0.07
		c1.27,0,2.77-1,3.06-1.2h0c1.61-1.11,3.65-3.42,4.46-5.69c-0.42-1.23-0.45-2.29-0.07-3.16l-2.92,1.71l-0.12-0.2l2.85-1.67
		c-1-0.11-2-0.7-2.91-1.71c-2.86-0.31-6.55,0.85-7.77,1.24c-1.74,0.55-2.76,1.26-3.03,2.11c-0.05,0.15-0.08,0.3-0.08,0.32
		c-0.01,0.22,0.09,0.43,0.22,0.7c0.19,0.4,0.45,0.95,0.5,1.87c0.03,0.56,0.07,1.33-0.35,2.14c-0.44,0.85-1.19,1.35-1.63,1.65
		c-0.06,0.04-0.13,0.08-0.18,0.12c0.08-0.02,0.18-0.05,0.27-0.07C15.1,38.32,15.79,38.12,16.66,38.12z M37.63,40.37
		c-1.28,0-2.78-0.99-3.1-1.21c-1.62-1.12-3.68-3.45-4.49-5.73l0-0.01l0-0.01c0.44-1.26,0.45-2.34,0.04-3.21l-0.04-0.09l3.04,1.78
		l0.05-0.09l-2.97-1.74l0.1-0.01c0.04,0,0.07-0.01,0.11-0.01c0.97-0.12,1.86-0.68,2.66-1.66l0.01-0.01l0.01,0
		c2.91-0.4,6.75,0.81,8.02,1.21c1.76,0.56,2.79,1.28,3.08,2.15c0.05,0.16,0.08,0.32,0.08,0.34c0.01,0.24-0.1,0.46-0.23,0.73
		c-0.19,0.4-0.44,0.94-0.49,1.84c-0.03,0.55-0.07,1.31,0.34,2.1c0.43,0.83,1.17,1.33,1.61,1.62c0.1,0.07,0.23,0.15,0.3,0.21
		l0.08,0.07l-0.1-0.01c-0.09-0.01-0.27-0.06-0.41-0.1l0,0c-0.55-0.16-1.48-0.42-2.61-0.3c-0.71,0.08-1.24,0.28-1.67,0.46
		c-0.96,0.4-1.47,0.77-1.87,1.07c-0.33,0.24-0.58,0.43-0.97,0.54C38.02,40.34,37.83,40.37,37.63,40.37z M30.11,33.42
		c0.81,2.26,2.86,4.57,4.46,5.69c0.37,0.26,2.28,1.52,3.61,1.13c0.37-0.11,0.63-0.3,0.95-0.53c0.41-0.3,0.91-0.67,1.88-1.08
		c0.44-0.18,0.97-0.39,1.69-0.47c1.14-0.13,2.07,0.14,2.63,0.3l0,0c0.09,0.02,0.18,0.05,0.27,0.07c-0.06-0.04-0.12-0.09-0.18-0.12
		c-0.45-0.3-1.19-0.8-1.63-1.65c-0.42-0.81-0.38-1.57-0.35-2.14c0.05-0.92,0.31-1.47,0.5-1.87c0.13-0.27,0.23-0.48,0.22-0.7
		c0-0.01-0.03-0.17-0.08-0.32c-0.28-0.85-1.3-1.56-3.03-2.11c-1.26-0.4-5.09-1.61-7.98-1.21c-0.81,0.99-1.72,1.55-2.69,1.68
		c0,0-0.01,0-0.01,0l2.86,1.67l-0.12,0.2l-2.92-1.71C30.55,31.13,30.53,32.19,30.11,33.42z M29.98,33.26l-0.03-0.1
		c-0.35-1.11-0.35-2.08,0-2.86l0.03-0.06l0.03,0.06c0.35,0.79,0.35,1.75,0,2.86L29.98,33.26z M29.98,30.39
		c-0.31,0.74-0.31,1.63,0,2.65C30.29,32.02,30.29,31.13,29.98,30.39z M29.83,29.95l-0.06,0c-0.96-0.06-1.93-0.59-2.82-1.53
		l-0.06-0.07l0.09,0.01c1.2,0.18,2.1,0.62,2.66,1.31c0.06,0.07,0.11,0.15,0.16,0.22L29.83,29.95z M27.06,28.44
		c0.84,0.86,1.75,1.36,2.65,1.44c-0.04-0.06-0.08-0.11-0.12-0.16C29.04,29.05,28.2,28.62,27.06,28.44z M30.14,29.94l0.04-0.05
		c0.05-0.08,0.1-0.15,0.16-0.22c0.53-0.65,1.35-1.08,2.45-1.28l0.09-0.02l-0.06,0.07c-0.75,0.87-1.58,1.37-2.47,1.48
		c-0.04,0.01-0.09,0.01-0.14,0.01L30.14,29.94z M32.71,28.47c-1.04,0.2-1.82,0.61-2.32,1.24c-0.04,0.05-0.08,0.1-0.12,0.16
		c0.02,0,0.05,0,0.07-0.01C31.18,29.76,31.98,29.29,32.71,28.47z M30.04,29.91v-3.56h-0.1v3.56l-0.06-0.09
		c-0.05-0.08-0.11-0.15-0.16-0.22c-0.61-0.75-1.59-1.22-2.92-1.38l-0.01,0l-0.01-0.01c-1.69-1.91-2.65-4.74-2.84-6.56
		c-0.04-0.44-0.21-2.69,0.83-3.61c0.29-0.26,0.59-0.38,0.98-0.53c0.47-0.18,1.06-0.41,1.91-1.01c0.38-0.27,0.83-0.61,1.26-1.15h0
		c0.68-0.87,0.91-1.77,1.05-2.31c0.04-0.14,0.08-0.32,0.12-0.4l0.02,0.06l0.04-0.05c0.02,0.08,0.03,0.23,0.04,0.36
		c0.04,0.51,0.11,1.38,0.64,2.16c0.5,0.74,1.21,1.09,1.72,1.35c0.84,0.42,1.45,0.48,1.9,0.52c0.31,0.03,0.56,0.06,0.77,0.18
		c0.02,0.01,0.15,0.12,0.27,0.24c0.64,0.67,0.77,1.9,0.38,3.63c-0.19,0.86-0.65,2.88-1.5,4.8l-0.01,0.01l0,0l-0.01,0.01
		c-0.42,0.93-0.88,1.71-1.37,2.33l-0.01,0.01l-0.01,0c-1.22,0.18-2.13,0.63-2.7,1.35c-0.06,0.07-0.11,0.14-0.16,0.22L30.04,29.91z
		 M34.31,25.86c0.85-1.9,1.3-3.91,1.49-4.77c0.38-1.71,0.26-2.92-0.36-3.57c-0.11-0.12-0.24-0.22-0.25-0.23
		c-0.2-0.12-0.44-0.14-0.74-0.17c-0.45-0.04-1.08-0.11-1.92-0.53c-0.52-0.26-1.23-0.62-1.74-1.37c-0.54-0.79-0.61-1.66-0.66-2.19
		c-0.01-0.08-0.02-0.11-0.03-0.18c-0.03,0.08-0.05,0.14-0.07,0.22c-0.14,0.54-0.37,1.46-1.06,2.33l-0.02-0.02l0.02,0.02
		c-0.44,0.55-0.89,0.89-1.27,1.17c-0.85,0.6-1.44,0.83-1.92,1.02c-0.38,0.15-0.67,0.26-0.96,0.51c-1.02,0.9-0.85,3.12-0.81,3.55
		c0.18,1.81,1.14,4.62,2.81,6.52c1.34,0.16,2.33,0.63,2.95,1.4c0.04,0.05,0.07,0.09,0.11,0.14V26.3h0.23v3.41
		c0.04-0.05,0.07-0.1,0.11-0.14c0.58-0.72,1.5-1.18,2.73-1.37c0.48-0.61,0.94-1.38,1.35-2.29 M33.12,28.24l0.04-0.06
		c0.45-0.59,0.87-1.32,1.26-2.18l0.01-0.01l0.01,0l8.98-3.82l-7.87,6.07l-0.01,0c-0.43-0.04-0.85-0.06-1.25-0.06
		c-0.39,0-0.76,0.02-1.1,0.06L33.12,28.24z M34.3,28.11c0.39,0,0.81,0.02,1.24,0.06l7.67-5.88l-8.73,3.74
		c-0.37,0.83-0.78,1.54-1.22,2.12C33.58,28.12,33.93,28.11,34.3,28.11z M24.41,28.23L24.41,28.23l-7.87-6.1l8.52,3.65l0.01,0.01
		c0.44,0.9,0.95,1.7,1.51,2.36l0.05,0.06l-0.08-0.01c-0.63-0.06-1.35-0.05-2.12,0.02L24.41,28.23z M16.76,22.29l7.67,5.88
		c0.74-0.07,1.43-0.08,2.05-0.03c-0.55-0.65-1.04-1.43-1.46-2.31L16.76,22.29z"/>
</g>
<line class="st1" x1="29.99" y1="30.03" x2="30.01" y2="29.97"/>
</svg>
