<?xml version="1.0" encoding="utf-8"?>
<!-- Generator: Adobe Illustrator 23.0.6, SVG Export Plug-In . SVG Version: 6.00 Build 0)  -->
<svg version="1.1" id="Layer_1" xmlns="http://www.w3.org/2000/svg" xmlns:xlink="http://www.w3.org/1999/xlink" x="0px" y="0px"
	 viewBox="0 0 1200 400" style="enable-background:new 0 0 1200 400;" xml:space="preserve">
<path d="M161.35,190.27h-49.38l-30.2-42.65H61.35v42.65H20.34V30.69h77.95c36.12,0,59.79,21.83,59.79,58.36
	c0,22.65-10.2,43.26-31.43,52.85L161.35,190.27z M114.21,185.98h38.77l-32.65-45.71l4.49-2.04c19.59-9.18,28.98-28.16,28.98-49.18
	c0-34.28-21.83-54.08-55.51-54.08H24.62v151.01h32.45v-42.65h26.94L114.21,185.98z M122.58,89.46c0,16.12-10.82,25.1-26.53,25.1
	H57.07V63.95h38.98C112.37,63.95,122.58,72.73,122.58,89.46z M118.29,89.46c0-14.28-8.37-21.22-22.24-21.22H61.35v42.04h34.69
	C109.31,110.27,118.29,103.13,118.29,89.46z"/>
<path d="M344.6,110.48c0,46.32-38.77,82.85-84.69,82.85c-45.71,0-84.69-36.73-84.69-82.85c0-46.12,38.98-82.85,84.69-82.85
	C305.83,27.63,344.6,64.16,344.6,110.48z M340.32,110.48c0-44.08-36.93-78.57-80.4-78.57c-43.06,0-80.4,34.9-80.4,78.57
	s37.34,78.56,80.4,78.56C303.38,189.04,340.32,154.56,340.32,110.48z M307.26,110.27c0,25.71-20.2,47.55-46.32,47.55
	c-26.73,0-48.36-20.2-48.36-47.34c0-26.12,21.22-47.34,47.34-47.34C286.24,63.14,307.26,83.95,307.26,110.27z M302.97,110.48
	c0-24.08-18.97-43.06-43.06-43.06c-23.87,0-43.06,19.18-43.06,43.06s19.18,43.06,43.06,43.06
	C284,153.54,302.97,134.56,302.97,110.48z"/>
<path d="M505.62,145.17c0,30.2-24.28,45.1-52.04,45.1h-86.32V30.69h79.38c27.96,0,51.83,13.27,51.83,44.08
	c0,14.69-6.33,26.32-19.18,33.47C495.82,114.56,505.62,127.21,505.62,145.17z M501.33,145.17c0-16.73-8.77-27.14-23.87-33.06
	l-8.37-3.27l7.75-4.08c11.63-6.12,17.34-16.94,17.34-30c0-28.16-22.04-39.79-47.55-39.79h-75.1v151.01h82.03
	C478.88,185.98,501.33,172.92,501.33,145.17z M441.95,97.42H404.2V63.95h40c10.2,0,16.94,6.53,16.94,16.73
	C461.13,92.52,452.97,97.42,441.95,97.42z M468.27,138.84c0,12.04-7.35,18.37-19.18,18.37H404.2v-36.12h44.89
	C460.52,121.09,468.27,126.8,468.27,138.84z M408.48,93.13h33.47c8.57,0,14.9-2.86,14.9-12.45c0-7.96-4.9-12.45-12.65-12.45h-35.71
	V93.13z M463.98,138.84c0-9.59-5.92-13.47-14.9-13.47h-40.61v27.55h40.61C458.48,152.93,463.98,148.64,463.98,138.84z"/>
<g>
	<path d="M173.18,326.45v0.21c-14.49,28.16-44.08,45.71-75.71,45.71c-45.71,0-84.69-36.73-84.69-82.85
		c0-46.12,38.98-82.85,84.69-82.85c31.63,0,60.81,17.55,75.5,45.51v0.21l-37.34,16.73h-0.2c-7.55-14.08-22.04-22.65-37.96-22.65
		c-23.88,0-43.06,19.18-43.06,43.06c0,23.87,19.18,43.06,43.06,43.06c15.92,0,30.41-8.37,37.96-22.45v-0.2L173.18,326.45z
		 M167.26,328.5l-30-13.06c-8.77,13.67-23.67,21.43-39.79,21.43c-26.12,0-47.34-21.22-47.34-47.34c0-26.12,21.22-47.35,47.34-47.35
		c16.12,0,31.02,7.96,39.79,21.43l29.79-13.27c-14.69-24.49-41.02-39.39-69.59-39.39c-43.26,0-80.4,34.9-80.4,78.57
		c0,43.67,37.14,78.57,80.4,78.57C126.04,368.09,152.78,353.19,167.26,328.5z"/>
	<path d="M343.38,369.31h-44.9l-8.77-23.27h-62.24l-8.77,23.27h-45.1l64.69-159.38v-0.21h40.81L343.38,369.31z M301.55,365.02h35.5
		l-61.01-151.01h-34.9l-61.02,151.01h35.51l8.78-23.26h68.36L301.55,365.02z M281.96,312.99h-46.73l23.47-62.44L281.96,312.99z
		 M275.83,308.7l-17.14-45.92l-17.34,45.92H275.83z"/>
	<path d="M508.06,209.73v159.58h-34.9l-70.61-88.36v88.36h-41.22V209.73h34.89l70.81,88.56v-88.56H508.06z M503.78,214.01h-32.45
		v96.53l-77.14-96.53h-28.57v151.01h32.65v-96.32l77.14,96.32h28.36V214.01z"/>
	<path d="M579.29,249.73v27.75h65.1v37.34h-65.1v54.49h-41.02V209.73h118.56v40H579.29z M575,281.77v-36.33h77.55v-31.43H542.55
		v151.01H575v-54.48h65.1v-28.77H575z"/>
	<path d="M721.32,209.73v159.58H680.1V209.73H721.32z M717.04,214.01h-32.65v151.01h32.65V214.01z"/>
	<path d="M792.74,249.73v22.45h66.94v37.34h-66.94v20h81.42v39.79H751.53V209.73h122.64v40H792.74z M788.46,276.46v-31.02h81.42
		v-31.43H755.81v151.01h114.07V333.8h-81.42v-28.57h66.94v-28.77H788.46z"/>
	<path d="M1017.02,329.52v39.79H899.68V209.73h41.02v119.79H1017.02z M1012.73,333.8h-76.32V214.01h-32.45v151.01h108.76V333.8z"/>
	<path d="M1187.21,289.52c0,46.32-27.75,79.79-75.5,79.79h-74.07V209.93h74.07C1159.26,209.93,1187.21,243.4,1187.21,289.52z
		 M1182.93,289.52c0-43.67-26.12-75.3-71.22-75.3h-69.79v150.81h69.79C1157.01,365.02,1182.93,333.4,1182.93,289.52z
		 M1149.87,289.32c0,25.71-14.08,44.49-41.02,44.49h-34.28v-88.36h34.08C1135.38,245.44,1149.87,263.61,1149.87,289.32z
		 M1145.58,289.52c0-23.27-12.65-39.79-36.93-39.79h-29.8v79.79h29.8C1133.14,329.52,1145.58,312.99,1145.58,289.52z"/>
</g>
</svg>
